arm26_states
nRows=18
nColumns=17

# SIMM Motion File Header:
name arm26_states
datacolumns 17
datarows 18
otherdata 1
range 0.80524288000000044000 0.84262144000000050000
endheader
time	r_shoulder_elev	r_elbow_flex	r_shoulder_elev_u	r_elbow_flex_u	TRIlong.activation	TRIlong.fiber_length	TRIlat.activation	TRIlat.fiber_length	TRImed.activation	TRImed.fiber_length	BIClong.activation	BIClong.fiber_length	BICshort.activation	BICshort.fiber_length	BRA.activation	BRA.fiber_length
      0.80524288000000044000	      0.03334997513582499400	     82.22953845405139400000	     -0.40862334963643793000	     80.96834660300044100000	      0.00000000006778188018	      0.16714065952481347000	      0.00000000158444525172	      0.10182889361681839000	      0.00000000169794637718	      0.09681397000467452400	      0.17008182980936212000	      0.10449562637614795000	      0.03416805614425054400	      0.10391665716136468000	      0.02430650068727102000	      0.07159185437598956900
      0.80786432000000041000	      0.03220657563466865200	     82.44101198492110400000	     -0.46284584269549672000	     80.35771814527692000000	      0.00000000006348215891	      0.16721520805468593000	      0.00000000148393648848	      0.10190056427514339000	      0.00000000159023770740	      0.09688574099814201100	      0.16535738893096213000	      0.10422917719127987000	      0.03235808208423911900	      0.10377406037124279000	      0.02276462581335182700	      0.07152324949224871100
      0.81000000000000050000	      0.03119136892830849700	     82.61200829227854600000	     -0.47679571436123741000	     79.76177562298796900000	      0.00000000006018161484	      0.16724822216296598000	      0.00000000140678413798	      0.10195854424085549000	      0.00000000150755857797	      0.09694380253030414300	      0.15829295755726017000	      0.10404546212597836000	      0.03076607677105873100	      0.10366128717655350000	      0.02158105468106585900	      0.07146762824736066500
      0.81131072000000048000	      0.03056140442092298100	     82.71627351648950800000	     -0.48581541631242570000	     79.34179734041906300000	      0.00000000005824154342	      0.16730038160299654000	      0.00000000136143371473	      0.10199392566051638000	      0.00000000145895949462	      0.09697923415132235500	      0.15319007615012326000	      0.10394687876568408000	      0.02986998038150997000	      0.10359354386946158000	      0.02088534740275198000	      0.07143358463176197000
      0.81262144000000047000	      0.02991813516049626100	     82.82002054847680500000	     -0.49636075443811017000	     78.96737065136771600000	      0.00000000005636401397	      0.16733359543361181000	      0.00000000131754525060	      0.10202914289476171000	      0.00000000141192709726	      0.09701450169588835000	      0.14825169605155458000	      0.10385752870524169000	      0.02919314761190730500	      0.10352589821485918000	      0.02021206760188309900	      0.07139961174833052400
      0.81524288000000045000	      0.02858381058986082500	     83.02608002295298200000	     -0.52117087419915320000	     78.24104985849345400000	      0.00000000005278858129	      0.16740107688252684000	      0.00000000123396720112	      0.10209908711947871000	      0.00000000132236196639	      0.09708454669219221400	      0.13884739848940056000	      0.10370100728349345000	      0.02846922694247350600	      0.10338714100647145000	      0.01892992174360987700	      0.07133186356467163800
      0.82000000000000051000	      0.02604372404982698000	     83.39481911664516600000	     -0.50750082343934744000	     76.80347714993757800000	      0.00000000004686948708	      0.16741974411205324000	      0.00000000109560454884	      0.10222434683332964000	      0.00000000117408775879	      0.09720998939811097100	      0.12327867486343429000	      0.10347052461528475000	      0.03114131331428964000	      0.10310128321715366000	      0.01680734168021797900	      0.07120955909777343400
      0.82131072000000049000	      0.02536792481248335500	     83.49512986789818600000	     -0.51482914731508245000	     76.27446288211996300000	      0.00000000004535855799	      0.16752653763821135000	      0.00000000106028560497	      0.10225844718179652000	      0.00000000113623875599	      0.09724414053151585200	      0.11930454697066598000	      0.10341565678660987000	      0.03303136599563124400	      0.10300637324462709000	      0.01635323429534525300	      0.07117594168329902100
      0.82262144000000048000	      0.02469912814762953100	     83.59476183801267300000	     -0.50455088405444048000	     75.74809002048468200000	      0.00000000004389633664	      0.16758598105643466000	      0.00000000102610523597	      0.10229235506670971000	      0.00000000109960988941	      0.09727809923800653800	      0.11545853282121601000	      0.10336360144070983000	      0.03504300085522552000	      0.10290485692416250000	      0.01608823308857925500	      0.07114176185927501000
      0.82393216000000047000	      0.02405172427299021000	     83.69370059302380600000	     -0.48256419264699330000	     75.21728721115650300000	      0.00000000004248125284	      0.16761797111739818000	      0.00000000099302673765	      0.10232605199541399000	      0.00000000106416182561	      0.09731184712411630700	      0.11173650241935454000	      0.10331400091004909000	      0.03716128207736624200	      0.10279816889314709000	      0.01600169335327006000	      0.07110667002100951000
      0.82655360000000044000	      0.02285345672516611200	     83.88944324699971800000	     -0.43075286158481840000	     74.11676114057371500000	      0.00000000003978646854	      0.16768191945908797000	      0.00000000093003441327	      0.10239270870010204000	      0.00000000099665707032	      0.09737860659421533600	      0.10464853415125099000	      0.10322098924228811000	      0.04166697836846420400	      0.10257389969124596000	      0.01735813430190781500	      0.07103039190667913300
      0.83000000000000052000	      0.02146266697861227300	     84.14243878283342300000	     -0.38119319493869963000	     72.73649945780570600000	      0.00000000003650199302	      0.16775355245526843000	      0.00000000085325767551	      0.10247889814599849000	      0.00000000091438046052	      0.09746493076703320600	      0.09600952795070941100	      0.10310865376874398000	      0.04801942277200202400	      0.10226662947476932000	      0.02237939422066723100	      0.07090983654485551200
      0.83262144000000049000	      0.02048657888951277100	     84.33181804821867900000	     -0.37434628622481320000	     71.71266998937707600000	      0.00000000003418650110	      0.16783646458342233000	      0.00000000079913155560	      0.10254344240533056000	      0.00000000085637703685	      0.09752957652132093800	      0.09223331859930993000	      0.10302597618386009000	      0.05023896571295035500	      0.10203647574499893000	      0.02543793005948017200	      0.07081192683115016000
      0.83393216000000048000	      0.02000234995009040100	     84.42546506600827200000	     -0.36366090641316151000	     71.17738505465044300000	      0.00000000003308443274	      0.16785529007803529000	      0.00000000077336999539	      0.10257538885749747000	      0.00000000082877005720	      0.09756157357914577200	      0.09255057654106869900	      0.10298064457510595000	      0.05007134345738060300	      0.10193157644267634000	      0.02571613322404091300	      0.07076736187903189000
      0.83524288000000046000	      0.01953279207174454800	     84.51838580055891700000	     -0.35205766653540366000	     70.60339959106276800000	      0.00000000003201789169	      0.16788735281545164000	      0.00000000074843890919	      0.10260710080155129000	      0.00000000080205304224	      0.09759333619869525700	      0.09674518914517674100	      0.10292693274288611000	      0.04962591365405332600	      0.10183399688933831000	      0.02560709091495736900	      0.07072687238520020100
      0.83786432000000044000	      0.01865165161484894400	     84.70191173160844800000	     -0.31877072549071594000	     69.41649287775597100000	      0.00000000002998684727	      0.16794564989536914000	      0.00000000070096193323	      0.10266978858208338000	      0.00000000075117507139	      0.09765612546195505400	      0.11640595009144412000	      0.10276968884181022000	      0.04793716575953443200	      0.10165873752230091000	      0.02488166165572060600	      0.07065414225263694200
      0.84000000000000052000	      0.01799240904273048300	     84.84919457692819800000	     -0.30394392748408916000	     68.53243994508183300000	      0.00000000002842778071	      0.16800010425774564000	      0.00000000066451774496	      0.10272011075668989000	      0.00000000071212021773	      0.09770653028341515200	      0.14151230929726982000	      0.10257895060139889000	      0.04581364398902659800	      0.10153402309183977000	      0.02381522225841849900	      0.07060074089444842700
      0.84262144000000050000	      0.01718344204948507900	     85.02762912090432200000	     -0.29707461299089721000	     67.69067420840016800000	      0.00000000002662447379	      0.16798252638349756000	      0.00000000062236428045	      0.10278102039810923000	      0.00000000066694710601	      0.09776754042754648400	      0.16368375794721299000	      0.10228726225086608000	      0.04290747055591074400	      0.10140032566705941000	      0.02230451146999610400	      0.07054019621065650600
